<svg width="800" height="520" viewBox="0 0 800 520" xmlns="http://www.w3.org/2000/svg">

<rect width="800" height="520" fill="#0D1B2A"></rect>


<text x="40" y="44" font-family="system-ui,-apple-system,sans-serif" font-weight="700" font-size="26" fill="#F0F4F8">Project Architecture</text>


<rect x="12" y="80" width="22" height="380" rx="4" fill="#2E3A4E"></rect>
<text x="23" y="340" font-family="system-ui,-apple-system,sans-serif" font-size="11" font-weight="500" fill="#7FE4FF" text-anchor="middle" transform="rotate(-90, 23, 340)" letter-spacing="2">ARCHITECTURE</text>


<rect x="46" y="80" width="734" height="390" rx="10" fill="#0F2235" stroke="#2E3A4E" stroke-width="1.5"></rect>



<rect x="80" y="118" width="120" height="64" rx="6" fill="#1C2A3A" stroke="#00C8FF" stroke-width="1.5"></rect>

<rect x="90" y="130" width="10" height="7" rx="1" fill="#0D1B2A" stroke="#00C8FF" stroke-width="0.8"></rect>
<rect x="104" y="130" width="10" height="7" rx="1" fill="#0D1B2A" stroke="#00C8FF" stroke-width="0.8"></rect>
<rect x="118" y="130" width="10" height="7" rx="1" fill="#0D1B2A" stroke="#00C8FF" stroke-width="0.8"></rect>
<rect x="132" y="130" width="10" height="7" rx="1" fill="#0D1B2A" stroke="#00C8FF" stroke-width="0.8"></rect>
<rect x="146" y="130" width="10" height="7" rx="1" fill="#0D1B2A" stroke="#00C8FF" stroke-width="0.8"></rect>
<rect x="160" y="130" width="10" height="7" rx="1" fill="#0D1B2A" stroke="#00C8FF" stroke-width="0.8"></rect>

<rect x="90" y="142" width="10" height="7" rx="1" fill="#0D1B2A" stroke="#00C8FF" stroke-width="0.8"></rect>
<rect x="104" y="142" width="10" height="7" rx="1" fill="#0D1B2A" stroke="#00C8FF" stroke-width="0.8"></rect>
<rect x="118" y="142" width="10" height="7" rx="1" fill="#0D1B2A" stroke="#00C8FF" stroke-width="0.8"></rect>
<rect x="132" y="142" width="10" height="7" rx="1" fill="#0D1B2A" stroke="#00C8FF" stroke-width="0.8"></rect>
<rect x="146" y="142" width="10" height="7" rx="1" fill="#0D1B2A" stroke="#00C8FF" stroke-width="0.8"></rect>
<rect x="160" y="142" width="10" height="7" rx="1" fill="#0D1B2A" stroke="#7FE4FF" stroke-width="0.8"></rect>

<circle cx="90" cy="162" r="3" fill="#00C8FF" opacity="0.9"></circle>
<circle cx="104" cy="162" r="3" fill="#00C8FF" opacity="0.7"></circle>
<circle cx="118" cy="162" r="3" fill="#2ECC71" opacity="0.8"></circle>
<circle cx="132" cy="162" r="3" fill="#2ECC71" opacity="0.6"></circle>
<circle cx="146" cy="162" r="3" fill="#00C8FF" opacity="0.5"></circle>
<circle cx="160" cy="162" r="3" fill="#D62828" opacity="0.8"></circle>

<text x="140" y="202" font-family="system-ui,-apple-system,sans-serif" font-size="11" font-weight="500" text-anchor="middle" fill="#00C8FF">Managed Switch</text>


<line x1="140" y1="182" x2="140" y2="222" stroke="#7FE4FF" stroke-width="2" opacity="0.5"></line>

<line x1="140" y1="250" x2="140" y2="270" stroke="#7FE4FF" stroke-width="2" opacity="0.5"></line>
<line x1="140" y1="250" x2="360" y2="250" stroke="#7FE4FF" stroke-width="2" opacity="0.5"></line>
<line x1="140" y1="250" x2="140" y2="370" stroke="#7FE4FF" stroke-width="2" opacity="0.5"></line>
<line x1="140" y1="370" x2="280" y2="370" stroke="#7FE4FF" stroke-width="2" opacity="0.5"></line>

<circle cx="140" cy="250" r="4" fill="#00C8FF" opacity="0.8"></circle>
<circle cx="140" cy="370" r="4" fill="#00C8FF" opacity="0.8"></circle>




<rect x="310" y="96" width="450" height="180" rx="8" fill="#2a0808" stroke="#D62828" stroke-width="2"></rect>
<text x="490" y="120" font-family="system-ui,-apple-system,sans-serif" font-size="14" font-weight="700" text-anchor="middle" fill="#D62828" letter-spacing="2">RED TEAM (ATTACKER)</text>


<line x1="360" y1="250" x2="360" y2="220" stroke="#D62828" stroke-width="2" opacity="0.6"></line>


<g transform="translate(340, 130)">
  <rect x="0" y="0" width="54" height="68" rx="4" fill="#1a0808" stroke="#D62828" stroke-width="1.2"></rect>
  <rect x="6" y="8" width="18" height="12" rx="2" fill="#0D1B2A" stroke="#D62828" stroke-width="0.8"></rect>
  <rect x="30" y="8" width="18" height="12" rx="2" fill="#0D1B2A" stroke="#D62828" stroke-width="0.8"></rect>
  <text x="9" y="17" font-family="monospace" font-size="5" fill="#D62828">POE</text>
  <text x="32" y="17" font-family="monospace" font-size="5" fill="#D62828">LAN</text>
  
  <rect x="19" y="44" width="6" height="16" rx="2" fill="#2a0808" stroke="#D62828" stroke-width="1"></rect>
  <rect x="29" y="44" width="6" height="16" rx="2" fill="#2a0808" stroke="#D62828" stroke-width="1"></rect>
</g>
<text x="367" y="212" font-family="system-ui,-apple-system,sans-serif" font-size="10" text-anchor="middle" fill="#FF6B6B">PoE Splitter</text>


<g transform="translate(440, 128)">
  <rect x="0" y="0" width="72" height="52" rx="3" fill="#1a0808" stroke="#D62828" stroke-width="1.2"></rect>
  <rect x="4" y="6" width="64" height="10" rx="1" fill="#0D1B2A"></rect>
  <rect x="4" y="20" width="64" height="10" rx="1" fill="#0D1B2A"></rect>
  <rect x="4" y="34" width="64" height="10" rx="1" fill="#0D1B2A"></rect>
  <circle cx="62" cy="11" r="3" fill="#2ECC71" opacity="0.9"></circle>
  <circle cx="62" cy="25" r="3" fill="#2ECC71" opacity="0.7"></circle>
  <circle cx="62" cy="39" r="3" fill="#D62828" opacity="0.8"></circle>
</g>
<text x="476" y="196" font-family="system-ui,-apple-system,sans-serif" font-size="10" text-anchor="middle" fill="#FF6B6B">Raspberry Pi 4</text>
<text x="476" y="208" font-family="system-ui,-apple-system,sans-serif" font-size="9" text-anchor="middle" fill="#7B0000">Kali Linux</text>


<g transform="translate(560, 126)">
  <rect x="0" y="0" width="80" height="54" rx="3" fill="#0a0505" stroke="#D62828" stroke-width="1.2"></rect>
  <rect x="4" y="4" width="72" height="42" rx="2" fill="#0D0303"></rect>
  
  <rect x="8" y="8" width="40" height="3" rx="1" fill="#D62828" opacity="0.5"></rect>
  <rect x="8" y="14" width="30" height="2" rx="1" fill="#FF6B6B" opacity="0.3"></rect>
  <rect x="8" y="19" width="50" height="2" rx="1" fill="#FF6B6B" opacity="0.2"></rect>
  <rect x="8" y="24" width="35" height="2" rx="1" fill="#00C8FF" opacity="0.3"></rect>
  <rect x="8" y="29" width="45" height="2" rx="1" fill="#00C8FF" opacity="0.2"></rect>
  <rect x="8" y="34" width="25" height="2" rx="1" fill="#D62828" opacity="0.4"></rect>
  
  <rect x="36" y="54" width="8" height="10" rx="1" fill="#1a0808"></rect>
  <rect x="28" y="63" width="24" height="4" rx="2" fill="#1a0808" stroke="#D62828" stroke-width="0.5"></rect>
</g>
<text x="600" y="208" font-family="system-ui,-apple-system,sans-serif" font-size="10" text-anchor="middle" fill="#FF6B6B">Dashboard</text>


<line x1="394" y1="164" x2="440" y2="164" stroke="#D62828" stroke-width="1.5" opacity="0.5"></line>
<line x1="512" y1="164" x2="560" y2="164" stroke="#D62828" stroke-width="1.5" opacity="0.5"></line>




<rect x="200" y="316" width="360" height="140" rx="8" fill="#0a0f2a" stroke="#00C8FF" stroke-width="2"></rect>
<text x="380" y="340" font-family="system-ui,-apple-system,sans-serif" font-size="14" font-weight="700" text-anchor="middle" fill="#00C8FF" letter-spacing="2">BLUE TEAM (VICTIM)</text>


<line x1="280" y1="370" x2="280" y2="356" stroke="#00C8FF" stroke-width="2" opacity="0.6"></line>


<g transform="translate(252, 348)">
  <rect x="0" y="0" width="54" height="68" rx="4" fill="#0a0f2a" stroke="#00C8FF" stroke-width="1.2"></rect>
  <rect x="6" y="8" width="18" height="12" rx="2" fill="#0D1B2A" stroke="#00C8FF" stroke-width="0.8"></rect>
  <rect x="30" y="8" width="18" height="12" rx="2" fill="#0D1B2A" stroke="#00C8FF" stroke-width="0.8"></rect>
  <text x="9" y="17" font-family="monospace" font-size="5" fill="#00C8FF">POE</text>
  <text x="32" y="17" font-family="monospace" font-size="5" fill="#00C8FF">LAN</text>
  <rect x="19" y="44" width="6" height="16" rx="2" fill="#0a1828" stroke="#00C8FF" stroke-width="1"></rect>
  <rect x="29" y="44" width="6" height="16" rx="2" fill="#0a1828" stroke="#00C8FF" stroke-width="1"></rect>
</g>
<text x="279" y="428" font-family="system-ui,-apple-system,sans-serif" font-size="10" text-anchor="middle" fill="#7FE4FF">PoE Splitter</text>


<g transform="translate(370, 348)">
  <rect x="0" y="0" width="72" height="52" rx="3" fill="#0a0f2a" stroke="#00C8FF" stroke-width="1.2"></rect>
  <rect x="4" y="6" width="64" height="10" rx="1" fill="#0D1B2A"></rect>
  <rect x="4" y="20" width="64" height="10" rx="1" fill="#0D1B2A"></rect>
  <rect x="4" y="34" width="64" height="10" rx="1" fill="#0D1B2A"></rect>
  <circle cx="62" cy="11" r="3" fill="#2ECC71" opacity="0.9"></circle>
  <circle cx="62" cy="25" r="3" fill="#2ECC71" opacity="0.7"></circle>
  <circle cx="62" cy="39" r="3" fill="#00C8FF" opacity="0.6"></circle>
</g>
<text x="406" y="410" font-family="system-ui,-apple-system,sans-serif" font-size="10" text-anchor="middle" fill="#7FE4FF">Cowrie</text>
<text x="406" y="422" font-family="system-ui,-apple-system,sans-serif" font-size="10" text-anchor="middle" fill="#7FE4FF">Honeypot</text>


<line x1="306" y1="382" x2="370" y2="382" stroke="#00C8FF" stroke-width="1.5" opacity="0.5"></line>


<rect x="580" y="336" width="160" height="100" rx="4" fill="#0F2235" stroke="#2E3A4E" stroke-width="1"></rect>
<text x="596" y="356" font-family="system-ui,-apple-system,sans-serif" font-size="9" font-weight="500" fill="#F0F4F8" letter-spacing="1">LEGEND</text>
<line x1="596" y1="362" x2="724" y2="362" stroke="#2E3A4E" stroke-width="0.5"></line>

<rect x="596" y="370" width="10" height="10" rx="2" fill="#2a0808" stroke="#D62828" stroke-width="1"></rect>
<text x="612" y="380" font-family="system-ui,-apple-system,sans-serif" font-size="9" fill="#FF6B6B">Red Team — Attacker</text>

<rect x="596" y="388" width="10" height="10" rx="2" fill="#0a0f2a" stroke="#00C8FF" stroke-width="1"></rect>
<text x="612" y="398" font-family="system-ui,-apple-system,sans-serif" font-size="9" fill="#7FE4FF">Blue Team — Victim</text>

<line x1="596" y1="408" x2="614" y2="408" stroke="#7FE4FF" stroke-width="2" opacity="0.5"></line>
<text x="620" y="412" font-family="system-ui,-apple-system,sans-serif" font-size="9" fill="#8BAEC4">Network cable</text>

<circle cx="602" cy="424" r="4" fill="#00C8FF" opacity="0.8"></circle>
<text x="612" y="428" font-family="system-ui,-apple-system,sans-serif" font-size="9" fill="#8BAEC4">Junction point</text>

</svg>